PathFileType	4	(X/Y/Z)	c:\Git\powerlifing_model_clean\simulations\HC835B\Session1\HC835B_OGR_0004\marker_experimental.trc
DataRate	CameraRate	NumFrames	NumMarkers	Units	OrigDataRate	OrigDataStartFrame	OrigNumFrames
240.000000	240.000000	5	38	mm	240.000000	162	217
Frame#	Time	RPSI			LPSI			RASI			LASI			RTH1			RTH2			RTH3			RTH4			RSK1			RSK2			RSK3			RSK4			RCAL1			RCAL2			RCAL3			RST			RPT			RTN			RFMB			RSMB			RVMB			RFMH			RSMH			RVMH			RPM			LTH1			LTH2			LTH3			LTH4			LSK1			LSK2			LSK3			LSK4			LCAL1			LCAL2			LCAL3			LFMH			LVMH			
		X1	Y1	Z1	X2	Y2	Z2	X3	Y3	Z3	X4	Y4	Z4	X5	Y5	Z5	X6	Y6	Z6	X7	Y7	Z7	X8	Y8	Z8	X9	Y9	Z9	X10	Y10	Z10	X11	Y11	Z11	X12	Y12	Z12	X13	Y13	Z13	X14	Y14	Z14	X15	Y15	Z15	X16	Y16	Z16	X17	Y17	Z17	X18	Y18	Z18	X19	Y19	Z19	X20	Y20	Z20	X21	Y21	Z21	X22	Y22	Z22	X23	Y23	Z23	X24	Y24	Z24	X25	Y25	Z25	X26	Y26	Z26	X27	Y27	Z27	X28	Y28	Z28	X29	Y29	Z29	X30	Y30	Z30	X31	Y31	Z31	X32	Y32	Z32	X33	Y33	Z33	X34	Y34	Z34	X35	Y35	Z35	X36	Y36	Z36	X37	Y37	Z37	X38	Y38	Z38	

163	0.675	512.3887939453126	1170.44384765625	-1799.291381835938	399.1678466796876	1165.720703125	-1804.063232421875	567.9694824218751	1096.360717773438	-1995.848754882813	329.6891479492188	1078.430297851563	-1996.788208007813	657.1102294921876	862.086364746094	-2029.237670898438	645.5103149414064	881.1386718750002	-2085.953857421875	645.9913940429689	802.5690917968752	-2088.388427734375	623.1550292968751	818.8090820312502	-2140.01611328125	594.8748168945314	481.3128662109376	-1926.163940429688	593.9803466796876	431.2436828613282	-1962.277954101563	589.3681030273439	428.4073791503907	-1901.377685546875	576.1279907226564	381.5762634277344	-1936.677734375	527.4727783203126	363.8118896484376	-1764.622680664063	489.005828857422	338.6454467773438	-1747.568237304688	551.7126464843751	332.5827331542969	-1736.228515625	480.4859619140626	299.5481262207032	-1806.255493164063	579.0862426757814	294.2819824218751	-1781.406860351563	498.0576477050782	270.1515502929688	-1855.192749023438	497.4750061035157	235.3039245605469	-1863.541137695313	548.7847900390626	237.5524597167969	-1881.300415039063	583.2636108398439	242.8179626464844	-1791.115356445313	487.7798767089845	174.4467315673828	-1877.062133789063	543.3039550781251	168.6980590820313	-1891.100708007813	596.1630249023439	176.9637451171875	-1834.850463867188	532.4156494140626	125.2853164672852	-1925.837524414063	281.3233947753907	823.922790527344	-1829.117065429688	292.3354187011719	795.3362426757815	-1881.690307617188	294.3511047363282	738.9904174804689	-1823.0517578125	320.5913391113282	714.0986938476564	-1871.712890625	346.3840332031251	359.8515930175782	-1573.737915039063	340.4050598144532	321.7134704589844	-1610.970092773438	350.8021545410157	303.5824279785157	-1565.638427734375	359.9071044921876	266.1134033203126	-1606.8896484375	415.7380981445314	205.8076629638672	-1453.581909179688	392.9827575683595	170.0889739990235	-1431.716796875	451.1042480468751	177.4733428955078	-1438.4306640625	472.2435607910157	56.94864654541017	-1614.761840820313	366.0176696777344	39.06892776489259	-1566.100708007813	
164	0.6791666666666667	512.5104370117189	1173.909790039063	-1814.02734375	399.2265625000001	1168.4345703125	-1819.248413085938	568.1149291992189	1100.3642578125	-2010.255615234375	330.3766479492188	1081.2978515625	-2012.218627929688	656.7738037109376	865.4697265625002	-2044.54541015625	645.3219604492189	884.5217285156252	-2101.330078125	645.1041259765626	805.9598388671877	-2103.628662109375	622.4525146484376	822.4038085937502	-2155.202392578125	593.7846679687501	476.4598388671876	-1946.411499023438	593.2200927734376	427.7239074707032	-1984.279907226563	588.0673217773439	422.531219482422	-1923.624755859375	575.3709716796876	377.0848999023438	-1960.664916992188	525.8556518554689	352.3776245117188	-1789.511474609375	487.445037841797	326.6998901367188	-1773.701904296875	550.1637573242189	320.1242370605469	-1762.244506835938	479.1600341796876	290.1656494140626	-1833.97802734375	577.6641845703126	283.4243164062501	-1808.736450195313	497.0072326660157	262.8188171386719	-1884.034301757813	496.3473205566407	228.2106018066407	-1893.756591796875	547.7534790039064	231.0101165771485	-1911.12109375	581.7090454101564	232.3795166015626	-1820.547241210938	486.4068298339845	167.987777709961	-1909.849365234375	542.0386962890626	162.6063842773438	-1923.678100585938	594.4010009765626	168.0820770263672	-1867	531.2301635742189	120.7461166381836	-1960.339233398438	280.8683776855469	827.8653564453127	-1841.543212890625	292.8632202148438	798.546081542969	-1893.55029296875	294.2499389648438	743.0564575195314	-1833.938354492188	321.3103332519532	717.4707031250001	-1881.8115234375	345.2582702636719	365.1667785644532	-1580.500610351563	338.4517211914063	327.0886230468751	-1617.5751953125	349.2342529296876	309.0132141113282	-1572.434448242188	357.6574707031251	271.4264831542969	-1613.769287109375	414.1766357421876	213.5216979980469	-1462.842407226563	392.350311279297	178.6218719482422	-1439.086059570313	450.1563110351564	186.5196075439453	-1446.744995117188	471.0128173828126	58.57748794555665	-1618.172485351563	365.8688049316407	41.04914855957032	-1567.378784179688	
165	0.6833333333333333	512.6233520507814	1177.376708984375	-1828.917358398438	399.2261657714845	1171.010498046875	-1834.430786132813	568.3104858398439	1104.478515625	-2024.695556640625	331.2352294921876	1084.053588867188	-2027.621215820313	656.2274780273439	868.6528320312502	-2059.711669921875	644.9434814453126	887.6394042968752	-2116.547119140625	644.4752197265626	809.0596923828127	-2118.700439453125	621.9586791992189	825.4647216796877	-2170.32763671875	592.5985107421876	471.4176025390626	-1966.495361328125	592.5036010742189	424.1697387695314	-2006.222534179688	586.8257446289064	416.6463623046876	-1945.929321289063	574.7284545898439	372.6448974609376	-1984.556640625	524.8325195312501	341.3278503417969	-1814.286987304688	485.7760009765626	314.8603820800782	-1800.171508789063	549.4250488281251	308.4257812500001	-1788.19091796875	477.8998107910157	280.8667602539063	-1862.037719726563	576.1483764648439	272.6610107421876	-1836.283447265625	495.4161987304689	256.2616271972657	-1914.794189453125	495.3370666503907	221.3729248046876	-1924.188232421875	546.8943481445314	224.5976257324219	-1940.927856445313	580.0461425781251	222.0411987304688	-1850.154418945313	485.1996154785157	161.92236328125	-1942.805419921875	540.9467163085939	156.9005889892578	-1956.460205078125	592.6982421875001	159.5620422363282	-1899.200927734375	530.2763671875001	116.6324996948242	-1994.836791992188	280.3391113281251	831.5976562500002	-1854.1328125	293.2290344238282	801.5710449218752	-1905.433349609375	294.0711669921876	747.0669555664064	-1844.974609375	321.8146667480469	720.9054565429689	-1892.287353515625	344.0823974609376	370.6092224121094	-1587.271728515625	336.6445617675782	332.6342773437501	-1624.326416015625	347.8357543945313	314.2779235839844	-1579.182739257813	355.5547180175782	276.8147888183594	-1620.795776367188	412.6193237304689	221.4987335205079	-1472.1201171875	391.6416320800782	187.2315521240235	-1446.604125976563	449.187957763672	195.8089904785157	-1455.291870117188	469.5232849121095	60.66479873657228	-1621.881103515625	365.7461853027344	43.4026107788086	-1568.826538085938	
166	0.6875	512.6773681640626	1180.652221679688	-1843.809692382813	399.2659301757814	1173.630249023438	-1849.495483398438	568.4707031250001	1108.548950195313	-2039.3046875	332.2872924804688	1086.71728515625	-2043.107421875	655.5430297851564	871.5767822265627	-2074.684326171875	644.4820556640626	890.4756469726565	-2131.60400390625	643.7947387695314	811.8944091796877	-2133.599853515625	621.3468017578126	828.2666015625002	-2185.282958984375	591.3899536132814	466.3359985351564	-1986.583129882813	591.8153686523439	420.5256958007814	-2028.018798828125	585.7258300781251	410.8875122070314	-1968.127075195313	574.0584716796876	368.1030273437501	-2008.46826171875	523.0106811523439	329.5656127929688	-1839.957153320313	484.0227050781251	302.9870605468751	-1827.014038085938	546.6254272460939	294.9641113281251	-1815.061401367188	476.7634582519532	271.8650207519532	-1890.322631835938	574.2130737304689	261.8251953125001	-1863.599365234375	494.3973693847657	249.3938751220704	-1944.111328125	494.3773803710939	214.7302551269532	-1954.728271484375	546.2181396484376	218.5621795654297	-1971.119750976563	578.4853515625001	211.9546508789063	-1879.96630859375	484.165740966797	156.25244140625	-1975.885009765625	540.0391845703126	151.5185546875	-1989.269287109375	591.1337280273439	151.4709625244141	-1931.537109375	529.5037231445314	113.0643157958985	-2029.401245117188	279.8649902343751	835.2391357421877	-1866.609008789063	293.4632263183594	804.502624511719	-1917.4609375	293.9297790527344	750.9852905273439	-1856.105224609375	322.2191467285157	724.0854492187501	-1902.740112304688	342.7686767578126	376.0571594238282	-1594.307983398438	334.9404602050782	338.1657104492188	-1631.330932617188	346.3403320312501	319.6403198242188	-1586.235107421875	353.6263122558594	282.2759094238282	-1627.967407226563	410.9565429687501	229.6013488769532	-1481.44091796875	390.953582763672	195.9797973632813	-1454.24560546875	448.1550903320314	205.1525573730469	-1464.003784179688	467.8416442871095	63.20898818969728	-1625.728149414063	365.8259582519532	46.58114242553712	-1570.319213867188	
167	0.6916666666666667	512.5957031250001	1183.927856445313	-1858.734375	399.1374816894532	1176.143798828125	-1864.608032226563	568.8078613281251	1112.731079101563	-2054.060546875	333.3758850097657	1089.334838867188	-2058.62158203125	654.6599731445314	874.274841308594	-2089.476806640625	643.8274536132814	893.0247192382815	-2146.450439453125	642.9133300781251	814.430847167969	-2148.228271484375	620.6455688476564	830.7211914062502	-2200.019287109375	590.1226806640626	461.1207275390626	-2006.663818359375	591.1495361328126	416.7986755371095	-2049.67724609375	584.5340576171876	405.0078125000001	-1990.259887695313	573.6305541992189	363.7168273925782	-2032.164184570313	521.4985351562501	318.1075439453126	-1865.51611328125	482.3436279296876	291.2029113769532	-1854.105834960938	544.5567016601564	282.3854980468751	-1842.037109375	475.4879760742189	262.7841491699219	-1918.767944335938	572.7593994140626	251.3759765625001	-1891.553100585938	493.5342102050782	242.6342315673829	-1973.22314453125	493.5411376953126	208.4198608398438	-1985.380126953125	545.5435791015626	212.7272949218751	-2001.111572265625	576.7255249023439	202.0930175781251	-1909.760009765625	483.3252563476564	150.7958984375	-2008.919555664063	539.2844238281251	146.5543212890625	-2022.15185546875	589.7537841796876	143.7585906982422	-1963.876342773438	528.9366455078126	109.8498077392578	-2063.92724609375	279.3416748046876	838.668395996094	-1879.283813476563	293.4990539550782	807.3333129882815	-1929.546508789063	293.8286437988282	754.7233886718751	-1867.304565429688	322.3868408203126	727.1976928710939	-1913.4189453125	341.4586486816407	381.4893798828126	-1601.45166015625	333.4483642578126	343.5512390136719	-1638.617431640625	344.8575134277344	325.1413574218751	-1593.491943359375	351.9113769531251	287.7530822753907	-1635.344360351563	409.5192871093751	237.5824279785157	-1490.523071289063	390.2889099121095	204.6704559326172	-1461.7626953125	447.2525024414064	214.3232421875001	-1472.644409179688	465.9934997558595	66.57466888427736	-1630.074951171875	365.7471618652344	50.16688537597658	-1572.2265625	
